<svg width="20" height="20" viewBox="0 0 20 20" fill="none" xmlns="http://www.w3.org/2000/svg">
<path fill-rule="evenodd" clip-rule="evenodd" d="M17.5 16.6667V5.00008C17.5 4.08341 16.75 3.33341 15.8333 3.33341H15V1.66675H13.3333V3.33341H6.66667V1.66675H5V3.33341H4.16667C3.24167 3.33341 2.50833 4.08341 2.50833 5.00008L2.5 16.6667C2.5 17.5834 3.24167 18.3334 4.16667 18.3334H15.8333C16.75 18.3334 17.5 17.5834 17.5 16.6667ZM7.5 10.8334V9.16675H5.83333V10.8334H7.5ZM4.16667 6.66675H15.8333V5.00008H4.16667V6.66675ZM15.8333 8.33341V16.6667H4.16667V8.33341H15.8333ZM12.5 10.8334H14.1667V9.16675H12.5V10.8334ZM10.8333 10.8334H9.16667V9.16675H10.8333V10.8334Z" fill="#8C94A4"/>
</svg>
