<svg width="182" height="34" viewBox="0 0 182 34" fill="none" xmlns="http://www.w3.org/2000/svg">
<g clip-path="url(#clip0_2066_38254)">
<path d="M41.8113 11.5884H45.4705C47.1886 11.5884 48.4214 12.7067 48.4214 14.3285C48.4214 15.9504 47.2148 17.0817 45.4705 17.0817H43.2343V20.8879H41.8179V11.5884H41.8113ZM45.3393 15.9046C46.3361 15.9046 46.9984 15.2441 46.9984 14.322C46.9984 13.3999 46.3295 12.7524 45.3393 12.7524H43.2278V15.8981H45.3393V15.9046Z" fill="url(#paint0_linear_2066_38254)"/>
<path d="M54.1724 17.5987V11.5952H55.5889V17.6575C55.5889 18.9524 56.461 19.868 57.7791 19.868C59.0972 19.868 59.9562 18.9982 59.9562 17.6837V11.5952H61.3727V17.6248C61.3727 19.6848 59.8316 21.0647 57.766 21.0647C55.7003 21.0647 54.1724 19.6391 54.1724 17.5987Z" fill="url(#paint1_linear_2066_38254)"/>
<path d="M70.0747 12.7658H67.0909V11.5952H74.4617V12.7658H71.4845V20.8947H70.0681V12.7658H70.0747Z" fill="url(#paint2_linear_2066_38254)"/>
<path d="M80.2127 11.5884H81.6292V20.8879H80.2127V11.5884Z" fill="url(#paint3_linear_2066_38254)"/>
<path d="M90.3442 12.7658H87.3605V11.5952H94.7313V12.7658H91.7541V20.8947H90.3377V12.7658H90.3442Z" fill="url(#paint4_linear_2066_38254)"/>
<path d="M99.9315 16.5195H103.433V17.7032H99.9315V16.5195Z" fill="url(#paint5_linear_2066_38254)"/>
<path d="M109.348 16.2252C109.348 13.3346 110.948 11.4185 113.643 11.4185C116.339 11.4185 117.945 13.3346 117.945 16.2252C117.945 19.1157 116.345 21.0645 113.643 21.0645C110.942 21.0645 109.348 19.0961 109.348 16.2252ZM116.509 16.2252C116.509 14.1586 115.473 12.6218 113.65 12.6218C111.827 12.6218 110.791 14.1586 110.791 16.2252C110.791 18.2917 111.853 19.8743 113.65 19.8743C115.447 19.8743 116.509 18.3048 116.509 16.2252Z" fill="url(#paint6_linear_2066_38254)"/>
<path d="M123.959 11.5884H125.755L130.096 19.3314H129.952V11.5884H131.31V20.8879H129.506L125.172 13.1448H125.309V20.8879H123.959V11.5884Z" fill="url(#paint7_linear_2066_38254)"/>
<path d="M137.389 19.2529H139.028V20.8879H137.389V19.2529Z" fill="url(#paint8_linear_2066_38254)"/>
<path d="M144.549 16.2317C144.549 13.315 146.215 11.4185 148.864 11.4185C150.923 11.4185 152.366 12.5367 152.845 14.5379H151.435C151.048 13.2692 150.13 12.6087 148.877 12.6087C146.943 12.6087 145.986 14.2044 145.986 16.199C145.986 18.3244 147.074 19.8678 148.832 19.8678C150.261 19.8678 151.232 18.8214 151.468 17.4481H152.878C152.504 19.6716 151.074 21.058 148.818 21.058C146.169 21.058 144.549 19.1026 144.549 16.2252V16.2317Z" fill="url(#paint9_linear_2066_38254)"/>
<path d="M158.373 16.2252C158.373 13.3346 159.973 11.4185 162.668 11.4185C165.363 11.4185 166.97 13.3346 166.97 16.2252C166.97 19.1157 165.37 21.0645 162.668 21.0645C159.966 21.0645 158.373 19.0961 158.373 16.2252ZM165.534 16.2252C165.534 14.1586 164.498 12.6218 162.675 12.6218C160.852 12.6218 159.816 14.1586 159.816 16.2252C159.816 18.2917 160.878 19.8743 162.675 19.8743C164.472 19.8743 165.534 18.3048 165.534 16.2252Z" fill="url(#paint10_linear_2066_38254)"/>
<path d="M172.983 11.5884H175.154L177.213 18.03C177.311 18.357 177.528 19.1483 177.58 19.4687H177.383C177.436 19.1745 177.659 18.357 177.757 18.03L179.823 11.5884H181.993V20.8879H180.643V15.1067C180.643 14.6097 180.682 13.3018 180.695 12.7982H180.649C180.525 13.2495 180.374 13.8184 180.262 14.1454L178.092 20.8879H176.878L174.701 14.1454C174.603 13.8511 174.432 13.2364 174.314 12.7982H174.275C174.275 13.2952 174.328 14.6032 174.328 15.1067V20.8879H172.977V11.5884H172.983Z" fill="url(#paint11_linear_2066_38254)"/>
<path fill-rule="evenodd" clip-rule="evenodd" d="M0 17.0491C0 7.65808 7.5806 0.0262263 16.9973 6.74493e-05C26.4141 -0.0260914 34.0668 7.55998 34.093 16.951C34.1193 26.3421 26.5124 33.9739 17.0957 34.0001C16.9449 34.0001 16.794 34.0001 16.6432 34.0001L16.6301 29.8539C21.2401 30.0043 25.7714 27.6696 28.224 23.4057C31.7651 17.2518 29.6273 9.40418 23.4631 5.87927C17.2924 2.34783 9.42329 4.47978 5.88874 10.6271C2.83945 15.9243 4.00014 22.4836 8.32817 26.4598L8.30194 17.036C8.28882 12.2163 12.1906 8.29897 17.0236 8.28589C21.8565 8.27281 25.7845 12.1639 25.7976 16.9837C25.8108 21.8035 21.909 25.7208 17.076 25.7339C16.9252 25.7339 16.7744 25.7339 16.6235 25.7208L16.6104 21.5877C16.7613 21.6008 16.9055 21.6073 17.0629 21.6073C19.6138 21.6008 21.6729 19.5342 21.6664 16.9903C21.6598 14.4463 19.5876 12.3928 17.0367 12.3994C14.5776 12.4059 12.5775 14.3286 12.4463 16.7417C12.4463 16.8333 12.4398 16.9249 12.4398 17.0164H12.4463L12.4923 33.3853C5.82316 31.5477 0 25.917 0 17.0491Z" fill="url(#paint12_linear_2066_38254)"/>
</g>
<defs>
<linearGradient id="paint0_linear_2066_38254" x1="45.1164" y1="11.5884" x2="45.1164" y2="20.8879" gradientUnits="userSpaceOnUse">
<stop stop-color="#D06705"/>
<stop offset="0.489583" stop-color="#EF9C20"/>
<stop offset="0.979167" stop-color="#ECDA36"/>
</linearGradient>
<linearGradient id="paint1_linear_2066_38254" x1="57.7726" y1="11.5952" x2="57.7726" y2="21.0647" gradientUnits="userSpaceOnUse">
<stop stop-color="#D06705"/>
<stop offset="0.489583" stop-color="#EF9C20"/>
<stop offset="0.979167" stop-color="#ECDA36"/>
</linearGradient>
<linearGradient id="paint2_linear_2066_38254" x1="70.7763" y1="11.5952" x2="70.7763" y2="20.8947" gradientUnits="userSpaceOnUse">
<stop stop-color="#D06705"/>
<stop offset="0.489583" stop-color="#EF9C20"/>
<stop offset="0.979167" stop-color="#ECDA36"/>
</linearGradient>
<linearGradient id="paint3_linear_2066_38254" x1="80.9209" y1="11.5884" x2="80.9209" y2="20.8879" gradientUnits="userSpaceOnUse">
<stop stop-color="#D06705"/>
<stop offset="0.489583" stop-color="#EF9C20"/>
<stop offset="0.979167" stop-color="#ECDA36"/>
</linearGradient>
<linearGradient id="paint4_linear_2066_38254" x1="91.0459" y1="11.5952" x2="91.0459" y2="20.8947" gradientUnits="userSpaceOnUse">
<stop stop-color="#D06705"/>
<stop offset="0.489583" stop-color="#EF9C20"/>
<stop offset="0.979167" stop-color="#ECDA36"/>
</linearGradient>
<linearGradient id="paint5_linear_2066_38254" x1="101.682" y1="16.5195" x2="101.682" y2="17.7032" gradientUnits="userSpaceOnUse">
<stop stop-color="#D06705"/>
<stop offset="0.489583" stop-color="#EF9C20"/>
<stop offset="0.979167" stop-color="#ECDA36"/>
</linearGradient>
<linearGradient id="paint6_linear_2066_38254" x1="113.647" y1="11.4185" x2="113.647" y2="21.0645" gradientUnits="userSpaceOnUse">
<stop stop-color="#D06705"/>
<stop offset="0.489583" stop-color="#EF9C20"/>
<stop offset="0.979167" stop-color="#ECDA36"/>
</linearGradient>
<linearGradient id="paint7_linear_2066_38254" x1="127.634" y1="11.5884" x2="127.634" y2="20.8879" gradientUnits="userSpaceOnUse">
<stop stop-color="#D06705"/>
<stop offset="0.489583" stop-color="#EF9C20"/>
<stop offset="0.979167" stop-color="#ECDA36"/>
</linearGradient>
<linearGradient id="paint8_linear_2066_38254" x1="138.208" y1="19.2529" x2="138.208" y2="20.8879" gradientUnits="userSpaceOnUse">
<stop stop-color="#D06705"/>
<stop offset="0.489583" stop-color="#EF9C20"/>
<stop offset="0.979167" stop-color="#ECDA36"/>
</linearGradient>
<linearGradient id="paint9_linear_2066_38254" x1="148.714" y1="11.4185" x2="148.714" y2="21.058" gradientUnits="userSpaceOnUse">
<stop stop-color="#D06705"/>
<stop offset="0.489583" stop-color="#EF9C20"/>
<stop offset="0.979167" stop-color="#ECDA36"/>
</linearGradient>
<linearGradient id="paint10_linear_2066_38254" x1="162.671" y1="11.4185" x2="162.671" y2="21.0645" gradientUnits="userSpaceOnUse">
<stop stop-color="#D06705"/>
<stop offset="0.489583" stop-color="#EF9C20"/>
<stop offset="0.979167" stop-color="#ECDA36"/>
</linearGradient>
<linearGradient id="paint11_linear_2066_38254" x1="177.485" y1="11.5884" x2="177.485" y2="20.8879" gradientUnits="userSpaceOnUse">
<stop stop-color="#D06705"/>
<stop offset="0.489583" stop-color="#EF9C20"/>
<stop offset="0.979167" stop-color="#ECDA36"/>
</linearGradient>
<linearGradient id="paint12_linear_2066_38254" x1="17.0465" y1="0" x2="17.0465" y2="34.0001" gradientUnits="userSpaceOnUse">
<stop stop-color="#D06705"/>
<stop offset="0.489583" stop-color="#EF9C20"/>
<stop offset="0.979167" stop-color="#ECDA36"/>
</linearGradient>
<clipPath id="clip0_2066_38254">
<rect width="182" height="34" fill="white"/>
</clipPath>
</defs>
</svg>
