<svg width="256" height="256" viewBox="0 0 256 256" fill="none" xmlns="http://www.w3.org/2000/svg">
<rect width="256" height="256" fill="#191C24"/>
<path d="M136.438 92.0938C136.438 92.7651 136.171 93.4089 135.696 93.8836C135.221 94.3583 134.578 94.625 133.906 94.625C133.235 94.625 132.591 94.3583 132.116 93.8836C131.642 93.4089 131.375 92.7651 131.375 92.0938C131.375 91.4224 131.642 90.7786 132.116 90.3039C132.591 89.8292 133.235 89.5625 133.906 89.5625C134.578 89.5625 135.221 89.8292 135.696 90.3039C136.171 90.7786 136.438 91.4224 136.438 92.0938V92.0938ZM149.938 82.8125V109.812V113.188C149.938 114.083 149.582 114.941 148.949 115.574C148.316 116.207 147.458 116.562 146.562 116.562H109.438C108.542 116.562 107.684 116.207 107.051 115.574C106.418 114.941 106.062 114.083 106.062 113.188V106.438V82.8125C106.062 81.9174 106.418 81.0589 107.051 80.426C107.684 79.7931 108.542 79.4375 109.438 79.4375H146.562C147.458 79.4375 148.316 79.7931 148.949 80.426C149.582 81.0589 149.938 81.9174 149.938 82.8125ZM146.562 105.741V82.8125H109.438V102.366L117.179 94.625C117.814 93.9989 118.67 93.648 119.562 93.648C120.455 93.648 121.311 93.9989 121.946 94.625L131.375 104.054L135.741 99.6875C136.377 99.0614 137.233 98.7105 138.125 98.7105C139.017 98.7105 139.873 99.0614 140.509 99.6875L146.562 105.741Z" fill="#E0DBDB"/>
<path d="M40.4926 140H37.3506V129.818H40.6318C41.6195 129.818 42.4647 130.022 43.1673 130.43C43.87 130.834 44.4086 131.416 44.7831 132.175C45.1576 132.93 45.3449 133.835 45.3449 134.889C45.3449 135.95 45.156 136.863 44.7781 137.629C44.4003 138.391 43.8501 138.978 43.1276 139.388C42.405 139.796 41.5267 140 40.4926 140ZM38.5835 138.906H40.4131C41.2549 138.906 41.9526 138.744 42.5061 138.419C43.0596 138.094 43.4723 137.632 43.744 137.032C44.0158 136.432 44.1517 135.718 44.1517 134.889C44.1517 134.067 44.0175 133.36 43.749 132.766C43.4805 132.17 43.0795 131.712 42.5459 131.394C42.0123 131.073 41.3477 130.912 40.5523 130.912H38.5835V138.906ZM46.974 140V132.364H48.1075V133.517H48.187C48.3263 133.139 48.5781 132.833 48.9427 132.597C49.3073 132.362 49.7183 132.244 50.1757 132.244C50.2619 132.244 50.3696 132.246 50.4988 132.249C50.6281 132.253 50.7259 132.258 50.7922 132.264V133.457C50.7524 133.447 50.6612 133.433 50.5187 133.413C50.3795 133.389 50.232 133.378 50.0763 133.378C49.705 133.378 49.3736 133.456 49.0819 133.612C48.7936 133.764 48.5649 133.976 48.3959 134.248C48.2301 134.516 48.1473 134.823 48.1473 135.168V140H46.974ZM54.1501 140.179C53.6662 140.179 53.2271 140.088 52.8326 139.906C52.4382 139.72 52.125 139.453 51.893 139.105C51.661 138.754 51.545 138.33 51.545 137.832C51.545 137.395 51.6312 137.04 51.8035 136.768C51.9759 136.493 52.2062 136.278 52.4946 136.122C52.7829 135.966 53.1011 135.85 53.4491 135.774C53.8005 135.695 54.1534 135.632 54.5081 135.585C54.9721 135.526 55.3483 135.481 55.6366 135.451C55.9283 135.418 56.1404 135.363 56.273 135.287C56.4089 135.211 56.4768 135.078 56.4768 134.889V134.849C56.4768 134.359 56.3426 133.978 56.0741 133.706C55.809 133.434 55.4063 133.298 54.866 133.298C54.3059 133.298 53.8667 133.421 53.5486 133.666C53.2304 133.911 53.0067 134.173 52.8774 134.452L51.7638 134.054C51.9626 133.59 52.2278 133.229 52.5592 132.97C52.894 132.708 53.2585 132.526 53.653 132.423C54.0507 132.317 54.4418 132.264 54.8263 132.264C55.0715 132.264 55.3532 132.294 55.6714 132.354C55.9929 132.41 56.3028 132.528 56.6011 132.707C56.9027 132.886 57.153 133.156 57.3518 133.517C57.5507 133.878 57.6501 134.362 57.6501 134.969V140H56.4768V138.966H56.4172C56.3376 139.132 56.205 139.309 56.0194 139.498C55.8338 139.687 55.5869 139.848 55.2787 139.98C54.9704 140.113 54.5942 140.179 54.1501 140.179ZM54.3291 139.125C54.7931 139.125 55.1842 139.034 55.5024 138.852C55.8239 138.669 56.0658 138.434 56.2282 138.146C56.394 137.857 56.4768 137.554 56.4768 137.236V136.162C56.4271 136.222 56.3177 136.276 56.1487 136.326C55.983 136.372 55.7907 136.414 55.572 136.45C55.3566 136.483 55.1461 136.513 54.9406 136.54C54.7384 136.563 54.5744 136.583 54.4484 136.599C54.1435 136.639 53.8585 136.704 53.5933 136.793C53.3315 136.879 53.1193 137.01 52.9569 137.186C52.7978 137.358 52.7183 137.594 52.7183 137.892C52.7183 138.3 52.8691 138.608 53.1707 138.817C53.4756 139.022 53.8618 139.125 54.3291 139.125ZM62.594 143.023C62.0273 143.023 61.54 142.95 61.1324 142.804C60.7247 142.661 60.385 142.473 60.1132 142.237C59.8447 142.005 59.631 141.757 59.4719 141.491L60.4065 140.835C60.5126 140.974 60.6468 141.134 60.8092 141.312C60.9716 141.495 61.1937 141.652 61.4754 141.785C61.7605 141.921 62.1333 141.989 62.594 141.989C63.2105 141.989 63.7193 141.839 64.1203 141.541C64.5213 141.243 64.7219 140.776 64.7219 140.139V138.588H64.6224C64.5363 138.727 64.4136 138.9 64.2545 139.105C64.0988 139.307 63.8734 139.488 63.5784 139.647C63.2867 139.803 62.8923 139.881 62.3952 139.881C61.7787 139.881 61.2252 139.735 60.7346 139.443C60.2474 139.152 59.8613 138.727 59.5763 138.17C59.2945 137.614 59.1537 136.937 59.1537 136.142C59.1537 135.36 59.2912 134.679 59.5663 134.099C59.8414 133.515 60.2242 133.065 60.7148 132.746C61.2053 132.425 61.7721 132.264 62.415 132.264C62.9122 132.264 63.3066 132.347 63.5983 132.513C63.8933 132.675 64.1186 132.861 64.2744 133.07C64.4335 133.275 64.5561 133.444 64.6423 133.577H64.7616V132.364H65.8952V140.219C65.8952 140.875 65.746 141.409 65.4477 141.82C65.1527 142.234 64.755 142.537 64.2545 142.729C63.7574 142.925 63.2039 143.023 62.594 143.023ZM62.5542 138.827C63.0249 138.827 63.4226 138.719 63.7474 138.504C64.0722 138.288 64.3192 137.978 64.4882 137.574C64.6572 137.17 64.7417 136.686 64.7417 136.122C64.7417 135.572 64.6589 135.086 64.4932 134.665C64.3274 134.245 64.0822 133.915 63.7574 133.676C63.4326 133.437 63.0315 133.318 62.5542 133.318C62.0571 133.318 61.6428 133.444 61.3114 133.696C60.9832 133.948 60.7363 134.286 60.5706 134.71C60.4082 135.134 60.327 135.605 60.327 136.122C60.327 136.652 60.4098 137.121 60.5756 137.529C60.7446 137.933 60.9932 138.252 61.3213 138.484C61.6527 138.712 62.0637 138.827 62.5542 138.827ZM72.1761 142.864C71.9772 142.864 71.7999 142.847 71.6441 142.814C71.4883 142.784 71.3806 142.754 71.321 142.724L71.6192 141.69C71.9043 141.763 72.1562 141.79 72.3749 141.77C72.5937 141.75 72.7876 141.652 72.9566 141.477C73.129 141.304 73.2864 141.024 73.4289 140.636L73.6477 140.04L70.8238 132.364H72.0965L74.2045 138.449H74.284L76.392 132.364H77.6647L74.4232 141.114C74.2774 141.508 74.0968 141.835 73.8813 142.093C73.6659 142.355 73.4156 142.549 73.1306 142.675C72.8489 142.801 72.5307 142.864 72.1761 142.864ZM81.7622 140.159C81.0728 140.159 80.4679 139.995 79.9476 139.667C79.4305 139.339 79.0262 138.88 78.7345 138.29C78.4461 137.7 78.302 137.01 78.302 136.222C78.302 135.426 78.4461 134.732 78.7345 134.138C79.0262 133.545 79.4305 133.085 79.9476 132.756C80.4679 132.428 81.0728 132.264 81.7622 132.264C82.4516 132.264 83.0548 132.428 83.5718 132.756C84.0922 133.085 84.4966 133.545 84.7849 134.138C85.0766 134.732 85.2224 135.426 85.2224 136.222C85.2224 137.01 85.0766 137.7 84.7849 138.29C84.4966 138.88 84.0922 139.339 83.5718 139.667C83.0548 139.995 82.4516 140.159 81.7622 140.159ZM81.7622 139.105C82.2859 139.105 82.7167 138.971 83.0548 138.702C83.3929 138.434 83.6431 138.081 83.8055 137.643C83.9679 137.206 84.0491 136.732 84.0491 136.222C84.0491 135.711 83.9679 135.236 83.8055 134.795C83.6431 134.354 83.3929 133.998 83.0548 133.726C82.7167 133.454 82.2859 133.318 81.7622 133.318C81.2385 133.318 80.8076 133.454 80.4696 133.726C80.1315 133.998 79.8813 134.354 79.7189 134.795C79.5565 135.236 79.4753 135.711 79.4753 136.222C79.4753 136.732 79.5565 137.206 79.7189 137.643C79.8813 138.081 80.1315 138.434 80.4696 138.702C80.8076 138.971 81.2385 139.105 81.7622 139.105ZM91.5459 136.878V132.364H92.7192V140H91.5459V138.707H91.4664C91.2874 139.095 91.009 139.425 90.6312 139.697C90.2533 139.965 89.776 140.099 89.1993 140.099C88.7221 140.099 88.2978 139.995 87.9266 139.786C87.5554 139.574 87.2637 139.256 87.0516 138.832C86.8395 138.404 86.7334 137.866 86.7334 137.216V132.364H87.9067V137.136C87.9067 137.693 88.0625 138.137 88.3741 138.469C88.6889 138.8 89.09 138.966 89.5772 138.966C89.8688 138.966 90.1655 138.891 90.4671 138.742C90.772 138.593 91.0272 138.364 91.2327 138.056C91.4415 137.748 91.5459 137.355 91.5459 136.878ZM94.5882 140V132.364H95.7217V133.517H95.8013C95.9405 133.139 96.1924 132.833 96.5569 132.597C96.9215 132.362 97.3325 132.244 97.7899 132.244C97.8761 132.244 97.9838 132.246 98.1131 132.249C98.2423 132.253 98.3401 132.258 98.4064 132.264V133.457C98.3666 133.447 98.2755 133.433 98.1329 133.413C97.9937 133.389 97.8462 133.378 97.6905 133.378C97.3193 133.378 96.9878 133.456 96.6962 133.612C96.4078 133.764 96.1791 133.976 96.0101 134.248C95.8444 134.516 95.7615 134.823 95.7615 135.168V140H94.5882ZM103.175 142.864V132.364H104.308V133.577H104.447C104.534 133.444 104.653 133.275 104.805 133.07C104.961 132.861 105.183 132.675 105.472 132.513C105.763 132.347 106.158 132.264 106.655 132.264C107.298 132.264 107.865 132.425 108.355 132.746C108.846 133.068 109.228 133.524 109.504 134.114C109.779 134.704 109.916 135.4 109.916 136.202C109.916 137.01 109.779 137.711 109.504 138.305C109.228 138.895 108.847 139.352 108.36 139.677C107.873 139.998 107.311 140.159 106.675 140.159C106.184 140.159 105.791 140.078 105.496 139.915C105.201 139.75 104.974 139.562 104.815 139.354C104.656 139.142 104.534 138.966 104.447 138.827H104.348V142.864H103.175ZM104.328 136.182C104.328 136.759 104.413 137.267 104.582 137.708C104.751 138.146 104.998 138.489 105.322 138.737C105.647 138.982 106.045 139.105 106.516 139.105C107.006 139.105 107.415 138.976 107.744 138.717C108.075 138.455 108.324 138.104 108.489 137.663C108.658 137.219 108.743 136.725 108.743 136.182C108.743 135.645 108.66 135.161 108.494 134.73C108.332 134.296 108.085 133.953 107.754 133.701C107.425 133.446 107.013 133.318 106.516 133.318C106.038 133.318 105.637 133.439 105.312 133.681C104.988 133.92 104.742 134.254 104.577 134.685C104.411 135.113 104.328 135.612 104.328 136.182ZM111.426 140V132.364H112.559V133.517H112.639C112.778 133.139 113.03 132.833 113.395 132.597C113.759 132.362 114.17 132.244 114.628 132.244C114.714 132.244 114.822 132.246 114.951 132.249C115.08 132.253 115.178 132.258 115.244 132.264V133.457C115.204 133.447 115.113 133.433 114.971 133.413C114.831 133.389 114.684 133.378 114.528 133.378C114.157 133.378 113.826 133.456 113.534 133.612C113.246 133.764 113.017 133.976 112.848 134.248C112.682 134.516 112.599 134.823 112.599 135.168V140H111.426ZM119.225 140.159C118.535 140.159 117.93 139.995 117.41 139.667C116.893 139.339 116.489 138.88 116.197 138.29C115.909 137.7 115.765 137.01 115.765 136.222C115.765 135.426 115.909 134.732 116.197 134.138C116.489 133.545 116.893 133.085 117.41 132.756C117.93 132.428 118.535 132.264 119.225 132.264C119.914 132.264 120.517 132.428 121.034 132.756C121.555 133.085 121.959 133.545 122.247 134.138C122.539 134.732 122.685 135.426 122.685 136.222C122.685 137.01 122.539 137.7 122.247 138.29C121.959 138.88 121.555 139.339 121.034 139.667C120.517 139.995 119.914 140.159 119.225 140.159ZM119.225 139.105C119.748 139.105 120.179 138.971 120.517 138.702C120.855 138.434 121.106 138.081 121.268 137.643C121.43 137.206 121.512 136.732 121.512 136.222C121.512 135.711 121.43 135.236 121.268 134.795C121.106 134.354 120.855 133.998 120.517 133.726C120.179 133.454 119.748 133.318 119.225 133.318C118.701 133.318 118.27 133.454 117.932 133.726C117.594 133.998 117.344 134.354 117.181 134.795C117.019 135.236 116.938 135.711 116.938 136.222C116.938 136.732 117.019 137.206 117.181 137.643C117.344 138.081 117.594 138.434 117.932 138.702C118.27 138.971 118.701 139.105 119.225 139.105ZM127.597 132.364V133.358H123.48V132.364H127.597ZM124.713 140V131.31C124.713 130.872 124.816 130.508 125.021 130.216C125.227 129.924 125.494 129.705 125.822 129.56C126.15 129.414 126.496 129.341 126.861 129.341C127.149 129.341 127.384 129.364 127.567 129.411C127.749 129.457 127.885 129.5 127.974 129.54L127.636 130.554C127.577 130.534 127.494 130.509 127.388 130.479C127.285 130.45 127.149 130.435 126.98 130.435C126.592 130.435 126.312 130.532 126.14 130.728C125.971 130.924 125.886 131.21 125.886 131.588V140H124.713ZM128.961 140V132.364H130.134V140H128.961ZM129.558 131.091C129.329 131.091 129.132 131.013 128.966 130.857C128.803 130.701 128.722 130.514 128.722 130.295C128.722 130.077 128.803 129.889 128.966 129.734C129.132 129.578 129.329 129.5 129.558 129.5C129.786 129.5 129.982 129.578 130.144 129.734C130.31 129.889 130.393 130.077 130.393 130.295C130.393 130.514 130.31 130.701 130.144 130.857C129.982 131.013 129.786 131.091 129.558 131.091ZM133.176 129.818V140H132.003V129.818H133.176ZM138.247 140.159C137.511 140.159 136.877 139.997 136.343 139.672C135.813 139.344 135.403 138.886 135.115 138.3C134.83 137.71 134.688 137.024 134.688 136.241C134.688 135.459 134.83 134.77 135.115 134.173C135.403 133.573 135.804 133.106 136.318 132.771C136.835 132.433 137.438 132.264 138.128 132.264C138.526 132.264 138.918 132.33 139.306 132.463C139.694 132.596 140.047 132.811 140.365 133.109C140.683 133.404 140.937 133.795 141.126 134.283C141.315 134.77 141.409 135.37 141.409 136.082V136.58H135.523V135.565H140.216C140.216 135.134 140.13 134.75 139.957 134.412C139.788 134.074 139.546 133.807 139.232 133.612C138.92 133.416 138.552 133.318 138.128 133.318C137.661 133.318 137.256 133.434 136.915 133.666C136.577 133.895 136.317 134.193 136.134 134.561C135.952 134.929 135.861 135.323 135.861 135.744V136.42C135.861 136.997 135.96 137.486 136.159 137.887C136.361 138.285 136.641 138.588 136.999 138.797C137.357 139.002 137.773 139.105 138.247 139.105C138.555 139.105 138.834 139.062 139.082 138.976C139.334 138.886 139.551 138.754 139.734 138.578C139.916 138.399 140.057 138.177 140.156 137.912L141.29 138.23C141.17 138.615 140.97 138.953 140.688 139.244C140.406 139.533 140.058 139.758 139.644 139.92C139.23 140.08 138.764 140.159 138.247 140.159ZM146.571 140V132.364H147.745V140H146.571ZM147.168 131.091C146.939 131.091 146.742 131.013 146.576 130.857C146.414 130.701 146.333 130.514 146.333 130.295C146.333 130.077 146.414 129.889 146.576 129.734C146.742 129.578 146.939 129.5 147.168 129.5C147.397 129.5 147.592 129.578 147.755 129.734C147.92 129.889 148.003 130.077 148.003 130.295C148.003 130.514 147.92 130.701 147.755 130.857C147.592 131.013 147.397 131.091 147.168 131.091ZM149.614 140V132.364H150.747V133.557H150.847C151.006 133.149 151.263 132.833 151.617 132.607C151.972 132.379 152.398 132.264 152.895 132.264C153.399 132.264 153.818 132.379 154.153 132.607C154.491 132.833 154.754 133.149 154.943 133.557H155.023C155.218 133.162 155.512 132.849 155.903 132.617C156.294 132.382 156.763 132.264 157.31 132.264C157.992 132.264 158.551 132.478 158.985 132.906C159.419 133.33 159.636 133.991 159.636 134.889V140H158.463V134.889C158.463 134.326 158.309 133.923 158.001 133.681C157.693 133.439 157.33 133.318 156.912 133.318C156.375 133.318 155.959 133.481 155.664 133.805C155.369 134.127 155.222 134.535 155.222 135.028V140H154.028V134.77C154.028 134.336 153.888 133.986 153.606 133.721C153.324 133.452 152.961 133.318 152.517 133.318C152.212 133.318 151.927 133.399 151.662 133.562C151.4 133.724 151.188 133.95 151.026 134.238C150.867 134.523 150.787 134.853 150.787 135.227V140H149.614ZM163.749 140.179C163.265 140.179 162.826 140.088 162.431 139.906C162.037 139.72 161.724 139.453 161.492 139.105C161.26 138.754 161.144 138.33 161.144 137.832C161.144 137.395 161.23 137.04 161.402 136.768C161.575 136.493 161.805 136.278 162.093 136.122C162.382 135.966 162.7 135.85 163.048 135.774C163.399 135.695 163.752 135.632 164.107 135.585C164.571 135.526 164.947 135.481 165.235 135.451C165.527 135.418 165.739 135.363 165.872 135.287C166.008 135.211 166.075 135.078 166.075 134.889V134.849C166.075 134.359 165.941 133.978 165.673 133.706C165.408 133.434 165.005 133.298 164.465 133.298C163.905 133.298 163.465 133.421 163.147 133.666C162.829 133.911 162.605 134.173 162.476 134.452L161.362 134.054C161.561 133.59 161.826 133.229 162.158 132.97C162.493 132.708 162.857 132.526 163.252 132.423C163.649 132.317 164.04 132.264 164.425 132.264C164.67 132.264 164.952 132.294 165.27 132.354C165.592 132.41 165.901 132.528 166.2 132.707C166.501 132.886 166.752 133.156 166.95 133.517C167.149 133.878 167.249 134.362 167.249 134.969V140H166.075V138.966H166.016C165.936 139.132 165.804 139.309 165.618 139.498C165.432 139.687 165.186 139.848 164.877 139.98C164.569 140.113 164.193 140.179 163.749 140.179ZM163.928 139.125C164.392 139.125 164.783 139.034 165.101 138.852C165.423 138.669 165.665 138.434 165.827 138.146C165.993 137.857 166.075 137.554 166.075 137.236V136.162C166.026 136.222 165.916 136.276 165.747 136.326C165.582 136.372 165.389 136.414 165.171 136.45C164.955 136.483 164.745 136.513 164.539 136.54C164.337 136.563 164.173 136.583 164.047 136.599C163.742 136.639 163.457 136.704 163.192 136.793C162.93 136.879 162.718 137.01 162.556 137.186C162.397 137.358 162.317 137.594 162.317 137.892C162.317 138.3 162.468 138.608 162.769 138.817C163.074 139.022 163.46 139.125 163.928 139.125ZM172.193 143.023C171.626 143.023 171.139 142.95 170.731 142.804C170.323 142.661 169.984 142.473 169.712 142.237C169.443 142.005 169.23 141.757 169.071 141.491L170.005 140.835C170.111 140.974 170.245 141.134 170.408 141.312C170.57 141.495 170.792 141.652 171.074 141.785C171.359 141.921 171.732 141.989 172.193 141.989C172.809 141.989 173.318 141.839 173.719 141.541C174.12 141.243 174.321 140.776 174.321 140.139V138.588H174.221C174.135 138.727 174.012 138.9 173.853 139.105C173.697 139.307 173.472 139.488 173.177 139.647C172.885 139.803 172.491 139.881 171.994 139.881C171.377 139.881 170.824 139.735 170.333 139.443C169.846 139.152 169.46 138.727 169.175 138.17C168.893 137.614 168.752 136.937 168.752 136.142C168.752 135.36 168.89 134.679 169.165 134.099C169.44 133.515 169.823 133.065 170.313 132.746C170.804 132.425 171.371 132.264 172.014 132.264C172.511 132.264 172.905 132.347 173.197 132.513C173.492 132.675 173.717 132.861 173.873 133.07C174.032 133.275 174.155 133.444 174.241 133.577H174.36V132.364H175.494V140.219C175.494 140.875 175.345 141.409 175.046 141.82C174.751 142.234 174.354 142.537 173.853 142.729C173.356 142.925 172.803 143.023 172.193 143.023ZM172.153 138.827C172.624 138.827 173.021 138.719 173.346 138.504C173.671 138.288 173.918 137.978 174.087 137.574C174.256 137.17 174.34 136.686 174.34 136.122C174.34 135.572 174.258 135.086 174.092 134.665C173.926 134.245 173.681 133.915 173.356 133.676C173.031 133.437 172.63 133.318 172.153 133.318C171.656 133.318 171.241 133.444 170.91 133.696C170.582 133.948 170.335 134.286 170.169 134.71C170.007 135.134 169.926 135.605 169.926 136.122C169.926 136.652 170.009 137.121 170.174 137.529C170.343 137.933 170.592 138.252 170.92 138.484C171.251 138.712 171.662 138.827 172.153 138.827ZM180.563 140.159C179.827 140.159 179.193 139.997 178.659 139.672C178.129 139.344 177.72 138.886 177.431 138.3C177.146 137.71 177.004 137.024 177.004 136.241C177.004 135.459 177.146 134.77 177.431 134.173C177.72 133.573 178.121 133.106 178.634 132.771C179.151 132.433 179.755 132.264 180.444 132.264C180.842 132.264 181.234 132.33 181.622 132.463C182.01 132.596 182.363 132.811 182.681 133.109C182.999 133.404 183.253 133.795 183.442 134.283C183.631 134.77 183.725 135.37 183.725 136.082V136.58H177.839V135.565H182.532C182.532 135.134 182.446 134.75 182.273 134.412C182.104 134.074 181.862 133.807 181.548 133.612C181.236 133.416 180.868 133.318 180.444 133.318C179.977 133.318 179.572 133.434 179.231 133.666C178.893 133.895 178.633 134.193 178.45 134.561C178.268 134.929 178.177 135.323 178.177 135.744V136.42C178.177 136.997 178.276 137.486 178.475 137.887C178.677 138.285 178.957 138.588 179.315 138.797C179.673 139.002 180.089 139.105 180.563 139.105C180.871 139.105 181.15 139.062 181.398 138.976C181.65 138.886 181.867 138.754 182.05 138.578C182.232 138.399 182.373 138.177 182.472 137.912L183.606 138.23C183.487 138.615 183.286 138.953 183.004 139.244C182.723 139.533 182.375 139.758 181.96 139.92C181.546 140.08 181.08 140.159 180.563 140.159ZM190.061 135.406V140H188.887V129.818H190.061V133.557H190.16C190.339 133.162 190.608 132.849 190.966 132.617C191.327 132.382 191.807 132.264 192.407 132.264C192.928 132.264 193.383 132.369 193.775 132.577C194.166 132.783 194.469 133.099 194.684 133.527C194.903 133.951 195.012 134.491 195.012 135.148V140H193.839V135.227C193.839 134.621 193.682 134.152 193.367 133.82C193.055 133.486 192.623 133.318 192.069 133.318C191.685 133.318 191.34 133.399 191.035 133.562C190.734 133.724 190.495 133.961 190.319 134.273C190.147 134.584 190.061 134.962 190.061 135.406ZM200.081 140.159C199.345 140.159 198.71 139.997 198.177 139.672C197.646 139.344 197.237 138.886 196.949 138.3C196.664 137.71 196.521 137.024 196.521 136.241C196.521 135.459 196.664 134.77 196.949 134.173C197.237 133.573 197.638 133.106 198.152 132.771C198.669 132.433 199.272 132.264 199.961 132.264C200.359 132.264 200.752 132.33 201.14 132.463C201.527 132.596 201.88 132.811 202.199 133.109C202.517 133.404 202.77 133.795 202.959 134.283C203.148 134.77 203.243 135.37 203.243 136.082V136.58H197.356V135.565H202.049C202.049 135.134 201.963 134.75 201.791 134.412C201.622 134.074 201.38 133.807 201.065 133.612C200.754 133.416 200.386 133.318 199.961 133.318C199.494 133.318 199.09 133.434 198.748 133.666C198.41 133.895 198.15 134.193 197.968 134.561C197.785 134.929 197.694 135.323 197.694 135.744V136.42C197.694 136.997 197.794 137.486 197.993 137.887C198.195 138.285 198.475 138.588 198.833 138.797C199.191 139.002 199.607 139.105 200.081 139.105C200.389 139.105 200.667 139.062 200.916 138.976C201.168 138.886 201.385 138.754 201.567 138.578C201.749 138.399 201.89 138.177 201.99 137.912L203.123 138.23C203.004 138.615 202.803 138.953 202.522 139.244C202.24 139.533 201.892 139.758 201.478 139.92C201.063 140.08 200.598 140.159 200.081 140.159ZM204.747 140V132.364H205.881V133.517H205.96C206.1 133.139 206.352 132.833 206.716 132.597C207.081 132.362 207.492 132.244 207.949 132.244C208.035 132.244 208.143 132.246 208.272 132.249C208.402 132.253 208.499 132.258 208.566 132.264V133.457C208.526 133.447 208.435 133.433 208.292 133.413C208.153 133.389 208.005 133.378 207.85 133.378C207.478 133.378 207.147 133.456 206.855 133.612C206.567 133.764 206.338 133.976 206.169 134.248C206.004 134.516 205.921 134.823 205.921 135.168V140H204.747ZM212.646 140.159C211.91 140.159 211.275 139.997 210.742 139.672C210.211 139.344 209.802 138.886 209.514 138.3C209.229 137.71 209.086 137.024 209.086 136.241C209.086 135.459 209.229 134.77 209.514 134.173C209.802 133.573 210.203 133.106 210.717 132.771C211.234 132.433 211.837 132.264 212.526 132.264C212.924 132.264 213.317 132.33 213.705 132.463C214.092 132.596 214.445 132.811 214.764 133.109C215.082 133.404 215.335 133.795 215.524 134.283C215.713 134.77 215.808 135.37 215.808 136.082V136.58H209.921V135.565H214.614C214.614 135.134 214.528 134.75 214.356 134.412C214.187 134.074 213.945 133.807 213.63 133.612C213.319 133.416 212.951 133.318 212.526 133.318C212.059 133.318 211.655 133.434 211.313 133.666C210.975 133.895 210.715 134.193 210.533 134.561C210.35 134.929 210.259 135.323 210.259 135.744V136.42C210.259 136.997 210.359 137.486 210.558 137.887C210.76 138.285 211.04 138.588 211.398 138.797C211.756 139.002 212.172 139.105 212.646 139.105C212.954 139.105 213.232 139.062 213.481 138.976C213.733 138.886 213.95 138.754 214.132 138.578C214.314 138.399 214.455 138.177 214.555 137.912L215.688 138.23C215.569 138.615 215.368 138.953 215.087 139.244C214.805 139.533 214.457 139.758 214.043 139.92C213.628 140.08 213.163 140.159 212.646 140.159ZM219.062 138.608L218.983 139.145C218.927 139.523 218.84 139.927 218.724 140.358C218.612 140.789 218.494 141.195 218.371 141.576C218.249 141.957 218.148 142.26 218.068 142.486H217.173C217.216 142.274 217.273 141.994 217.342 141.646C217.412 141.298 217.481 140.908 217.551 140.477C217.624 140.05 217.684 139.612 217.73 139.165L217.79 138.608H219.062ZM99.4924 160.159C98.803 160.159 98.1982 159.995 97.6778 159.667C97.1607 159.339 96.7564 158.88 96.4647 158.29C96.1764 157.7 96.0322 157.01 96.0322 156.222C96.0322 155.426 96.1764 154.732 96.4647 154.138C96.7564 153.545 97.1607 153.085 97.6778 152.756C98.1982 152.428 98.803 152.264 99.4924 152.264C100.182 152.264 100.785 152.428 101.302 152.756C101.822 153.085 102.227 153.545 102.515 154.138C102.807 154.732 102.953 155.426 102.953 156.222C102.953 157.01 102.807 157.7 102.515 158.29C102.227 158.88 101.822 159.339 101.302 159.667C100.785 159.995 100.182 160.159 99.4924 160.159ZM99.4924 159.105C100.016 159.105 100.447 158.971 100.785 158.702C101.123 158.434 101.373 158.081 101.536 157.643C101.698 157.206 101.779 156.732 101.779 156.222C101.779 155.711 101.698 155.236 101.536 154.795C101.373 154.354 101.123 153.998 100.785 153.726C100.447 153.454 100.016 153.318 99.4924 153.318C98.9688 153.318 98.5379 153.454 98.1998 153.726C97.8617 153.998 97.6115 154.354 97.4491 154.795C97.2867 155.236 97.2055 155.711 97.2055 156.222C97.2055 156.732 97.2867 157.206 97.4491 157.643C97.6115 158.081 97.8617 158.434 98.1998 158.702C98.5379 158.971 98.9688 159.105 99.4924 159.105ZM104.464 160V152.364H105.597V153.517H105.677C105.816 153.139 106.068 152.833 106.432 152.597C106.797 152.362 107.208 152.244 107.665 152.244C107.752 152.244 107.859 152.246 107.989 152.249C108.118 152.253 108.216 152.258 108.282 152.264V153.457C108.242 153.447 108.151 153.433 108.008 153.413C107.869 153.389 107.722 153.378 107.566 153.378C107.195 153.378 106.863 153.456 106.572 153.612C106.283 153.764 106.055 153.976 105.886 154.248C105.72 154.516 105.637 154.823 105.637 155.168V160H104.464Z" fill="#E0DBDB"/>
<path d="M112.164 160V149.818H114.282V153.646H114.346C114.439 153.441 114.574 153.232 114.749 153.02C114.928 152.804 115.16 152.625 115.445 152.483C115.734 152.337 116.092 152.264 116.519 152.264C117.076 152.264 117.59 152.41 118.06 152.702C118.531 152.99 118.907 153.426 119.189 154.009C119.471 154.589 119.611 155.317 119.611 156.192C119.611 157.044 119.474 157.763 119.199 158.349C118.927 158.933 118.556 159.375 118.085 159.677C117.618 159.975 117.094 160.124 116.514 160.124C116.103 160.124 115.753 160.056 115.465 159.92C115.18 159.785 114.946 159.614 114.764 159.408C114.582 159.2 114.443 158.989 114.346 158.777H114.252V160H112.164ZM114.237 156.182C114.237 156.636 114.3 157.032 114.426 157.37C114.552 157.708 114.734 157.972 114.973 158.161C115.212 158.346 115.502 158.439 115.843 158.439C116.188 158.439 116.479 158.344 116.718 158.156C116.957 157.963 117.137 157.698 117.26 157.36C117.386 157.019 117.449 156.626 117.449 156.182C117.449 155.741 117.387 155.353 117.265 155.018C117.142 154.684 116.962 154.422 116.723 154.233C116.484 154.044 116.191 153.95 115.843 153.95C115.498 153.95 115.207 154.041 114.968 154.223C114.733 154.405 114.552 154.664 114.426 154.999C114.3 155.333 114.237 155.728 114.237 156.182ZM120.745 160V152.364H122.798V153.696H122.877C123.017 153.222 123.25 152.864 123.578 152.622C123.907 152.377 124.284 152.254 124.712 152.254C124.818 152.254 124.932 152.261 125.055 152.274C125.178 152.287 125.285 152.306 125.378 152.329V154.208C125.279 154.178 125.141 154.152 124.965 154.129C124.79 154.105 124.629 154.094 124.483 154.094C124.172 154.094 123.893 154.162 123.648 154.298C123.406 154.43 123.214 154.616 123.071 154.854C122.932 155.093 122.862 155.368 122.862 155.68V160H120.745ZM129.288 160.149C128.516 160.149 127.848 159.985 127.284 159.657C126.724 159.326 126.292 158.865 125.987 158.275C125.682 157.682 125.529 156.994 125.529 156.212C125.529 155.423 125.682 154.733 125.987 154.143C126.292 153.55 126.724 153.089 127.284 152.761C127.848 152.43 128.516 152.264 129.288 152.264C130.06 152.264 130.726 152.43 131.286 152.761C131.85 153.089 132.284 153.55 132.589 154.143C132.894 154.733 133.046 155.423 133.046 156.212C133.046 156.994 132.894 157.682 132.589 158.275C132.284 158.865 131.85 159.326 131.286 159.657C130.726 159.985 130.06 160.149 129.288 160.149ZM129.298 158.509C129.649 158.509 129.943 158.409 130.178 158.21C130.413 158.008 130.59 157.733 130.71 157.385C130.832 157.037 130.894 156.641 130.894 156.197C130.894 155.753 130.832 155.357 130.71 155.009C130.59 154.661 130.413 154.385 130.178 154.183C129.943 153.981 129.649 153.88 129.298 153.88C128.943 153.88 128.645 153.981 128.403 154.183C128.164 154.385 127.984 154.661 127.861 155.009C127.742 155.357 127.682 155.753 127.682 156.197C127.682 156.641 127.742 157.037 127.861 157.385C127.984 157.733 128.164 158.008 128.403 158.21C128.645 158.409 128.943 158.509 129.298 158.509ZM135.459 160L133.38 152.364H135.523L136.706 157.494H136.776L138.009 152.364H140.112L141.365 157.464H141.429L142.593 152.364H144.731L142.657 160H140.415L139.103 155.197H139.008L137.696 160H135.459ZM151.934 154.541L149.995 154.661C149.962 154.495 149.891 154.346 149.781 154.213C149.672 154.077 149.528 153.969 149.349 153.89C149.173 153.807 148.963 153.766 148.717 153.766C148.389 153.766 148.113 153.835 147.887 153.974C147.662 154.11 147.549 154.293 147.549 154.521C147.549 154.704 147.622 154.858 147.768 154.984C147.914 155.11 148.164 155.211 148.519 155.287L149.901 155.565C150.643 155.718 151.197 155.963 151.561 156.301C151.926 156.639 152.108 157.083 152.108 157.634C152.108 158.134 151.961 158.573 151.666 158.951C151.374 159.329 150.973 159.624 150.462 159.836C149.955 160.045 149.37 160.149 148.708 160.149C147.697 160.149 146.891 159.939 146.291 159.518C145.695 159.094 145.345 158.517 145.242 157.788L147.325 157.678C147.388 157.987 147.541 158.222 147.783 158.384C148.025 158.543 148.335 158.623 148.712 158.623C149.084 158.623 149.382 158.552 149.607 158.409C149.836 158.263 149.952 158.076 149.955 157.847C149.952 157.655 149.871 157.498 149.712 157.375C149.553 157.249 149.307 157.153 148.976 157.087L147.654 156.823C146.908 156.674 146.353 156.415 145.988 156.048C145.627 155.68 145.446 155.211 145.446 154.641C145.446 154.15 145.579 153.728 145.844 153.373C146.112 153.018 146.489 152.745 146.972 152.553C147.46 152.36 148.03 152.264 148.683 152.264C149.647 152.264 150.406 152.468 150.96 152.876C151.516 153.283 151.841 153.839 151.934 154.541ZM156.642 160.149C155.856 160.149 155.18 159.99 154.613 159.672C154.05 159.35 153.616 158.896 153.311 158.31C153.006 157.72 152.853 157.022 152.853 156.217C152.853 155.431 153.006 154.742 153.311 154.148C153.616 153.555 154.045 153.093 154.598 152.761C155.155 152.43 155.808 152.264 156.557 152.264C157.061 152.264 157.53 152.345 157.964 152.508C158.402 152.667 158.783 152.907 159.108 153.229C159.436 153.55 159.691 153.955 159.873 154.442C160.056 154.926 160.147 155.492 160.147 156.142V156.724H153.699V155.411H158.153C158.153 155.106 158.087 154.836 157.954 154.601C157.822 154.366 157.638 154.182 157.402 154.049C157.17 153.913 156.9 153.845 156.592 153.845C156.271 153.845 155.986 153.92 155.737 154.069C155.492 154.215 155.299 154.412 155.16 154.661C155.021 154.906 154.95 155.179 154.946 155.481V156.729C154.946 157.107 155.016 157.433 155.155 157.708C155.298 157.983 155.498 158.195 155.757 158.344C156.015 158.494 156.322 158.568 156.677 158.568C156.912 158.568 157.127 158.535 157.323 158.469C157.518 158.402 157.686 158.303 157.825 158.17C157.964 158.038 158.07 157.875 158.143 157.683L160.102 157.812C160.003 158.283 159.799 158.694 159.491 159.045C159.186 159.393 158.791 159.665 158.307 159.861C157.827 160.053 157.272 160.149 156.642 160.149Z" fill="#007BFF"/>
<path d="M43.5917 175.455C43.5405 175.023 43.3331 174.688 42.9695 174.449C42.6059 174.21 42.1598 174.091 41.6314 174.091C41.2451 174.091 40.907 174.153 40.6172 174.278C40.3303 174.403 40.1059 174.575 39.9439 174.794C39.7848 175.013 39.7053 175.261 39.7053 175.54C39.7053 175.773 39.7607 175.973 39.8715 176.141C39.9851 176.305 40.13 176.443 40.3061 176.554C40.4823 176.662 40.6669 176.751 40.8601 176.822C41.0533 176.891 41.2309 176.946 41.3928 176.989L42.2792 177.227C42.5064 177.287 42.7593 177.369 43.0377 177.474C43.3189 177.58 43.5874 177.723 43.8431 177.905C44.1016 178.084 44.3147 178.314 44.4823 178.595C44.6499 178.876 44.7337 179.222 44.7337 179.631C44.7337 180.102 44.6101 180.528 44.363 180.909C44.1186 181.29 43.7607 181.592 43.2891 181.817C42.8203 182.041 42.2507 182.153 41.5803 182.153C40.9553 182.153 40.4141 182.053 39.9567 181.851C39.5022 181.649 39.1442 181.368 38.8828 181.007C38.6243 180.646 38.478 180.227 38.4439 179.75H39.5348C39.5632 180.08 39.674 180.352 39.8672 180.568C40.0632 180.781 40.3104 180.94 40.6087 181.045C40.9098 181.148 41.2337 181.199 41.5803 181.199C41.9837 181.199 42.3459 181.134 42.6669 181.003C42.988 180.869 43.2422 180.685 43.4297 180.449C43.6172 180.21 43.711 179.932 43.711 179.614C43.711 179.324 43.63 179.088 43.4681 178.906C43.3061 178.724 43.0931 178.577 42.8289 178.463C42.5647 178.349 42.2792 178.25 41.9723 178.165L40.8985 177.858C40.2167 177.662 39.6769 177.382 39.2792 177.018C38.8814 176.655 38.6826 176.179 38.6826 175.591C38.6826 175.102 38.8147 174.676 39.0789 174.312C39.3459 173.946 39.7039 173.662 40.1527 173.46C40.6044 173.256 41.1087 173.153 41.6655 173.153C42.228 173.153 42.728 173.254 43.1655 173.456C43.603 173.655 43.9496 173.928 44.2053 174.274C44.4638 174.621 44.6002 175.014 44.6144 175.455H43.5917ZM50.2199 179.324V175.455H51.2256V182H50.2199V180.892H50.1517C49.9983 181.224 49.7597 181.507 49.4358 181.74C49.112 181.97 48.7029 182.085 48.2085 182.085C47.7995 182.085 47.4358 181.996 47.1176 181.817C46.7995 181.635 46.5495 181.362 46.3676 180.999C46.1858 180.632 46.0949 180.17 46.0949 179.614V175.455H47.1006V179.545C47.1006 180.023 47.2341 180.403 47.5012 180.688C47.771 180.972 48.1148 181.114 48.5324 181.114C48.7824 181.114 49.0367 181.05 49.2952 180.922C49.5566 180.794 49.7753 180.598 49.9514 180.334C50.1304 180.07 50.2199 179.733 50.2199 179.324ZM52.8276 184.455V175.455H53.7992V176.494H53.9185C53.9923 176.381 54.0946 176.236 54.2253 176.06C54.3588 175.881 54.5492 175.722 54.7963 175.582C55.0463 175.44 55.3844 175.369 55.8105 175.369C56.3617 175.369 56.8474 175.507 57.2679 175.783C57.6884 176.058 58.0165 176.449 58.2523 176.955C58.4881 177.46 58.606 178.057 58.606 178.744C58.606 179.438 58.4881 180.038 58.2523 180.547C58.0165 181.053 57.6898 181.445 57.2722 181.723C56.8546 181.999 56.373 182.136 55.8276 182.136C55.4071 182.136 55.0705 182.067 54.8176 181.928C54.5648 181.786 54.3702 181.625 54.2338 181.446C54.0974 181.264 53.9923 181.114 53.9185 180.994H53.8332V184.455H52.8276ZM53.8162 178.727C53.8162 179.222 53.8886 179.658 54.0335 180.036C54.1784 180.411 54.3901 180.705 54.6685 180.918C54.9469 181.128 55.2878 181.233 55.6912 181.233C56.1117 181.233 56.4625 181.122 56.7438 180.901C57.0278 180.676 57.2409 180.375 57.383 179.997C57.5278 179.616 57.6003 179.193 57.6003 178.727C57.6003 178.267 57.5293 177.852 57.3872 177.483C57.248 177.111 57.0364 176.817 56.7523 176.601C56.471 176.382 56.1173 176.273 55.6912 176.273C55.2821 176.273 54.9384 176.376 54.6599 176.584C54.3815 176.788 54.1713 177.075 54.0293 177.445C53.8872 177.811 53.8162 178.239 53.8162 178.727ZM59.9001 184.455V175.455H60.8717V176.494H60.991C61.0648 176.381 61.1671 176.236 61.2978 176.06C61.4313 175.881 61.6217 175.722 61.8688 175.582C62.1188 175.44 62.4569 175.369 62.883 175.369C63.4342 175.369 63.9199 175.507 64.3404 175.783C64.7609 176.058 65.089 176.449 65.3248 176.955C65.5606 177.46 65.6785 178.057 65.6785 178.744C65.6785 179.438 65.5606 180.038 65.3248 180.547C65.089 181.053 64.7623 181.445 64.3447 181.723C63.9271 181.999 63.4455 182.136 62.9001 182.136C62.4796 182.136 62.143 182.067 61.8901 181.928C61.6373 181.786 61.4427 181.625 61.3063 181.446C61.1699 181.264 61.0648 181.114 60.991 180.994H60.9057V184.455H59.9001ZM60.8887 178.727C60.8887 179.222 60.9611 179.658 61.106 180.036C61.2509 180.411 61.4626 180.705 61.741 180.918C62.0194 181.128 62.3603 181.233 62.7637 181.233C63.1842 181.233 63.535 181.122 63.8163 180.901C64.1003 180.676 64.3134 180.375 64.4555 179.997C64.6003 179.616 64.6728 179.193 64.6728 178.727C64.6728 178.267 64.6018 177.852 64.4597 177.483C64.3205 177.111 64.1089 176.817 63.8248 176.601C63.5435 176.382 63.1898 176.273 62.7637 176.273C62.3546 176.273 62.0109 176.376 61.7324 176.584C61.454 176.788 61.2438 177.075 61.1018 177.445C60.9597 177.811 60.8887 178.239 60.8887 178.727ZM69.6317 182.136C69.0407 182.136 68.5223 181.996 68.0763 181.714C67.6331 181.433 67.2865 181.04 67.0365 180.534C66.7893 180.028 66.6657 179.437 66.6657 178.761C66.6657 178.08 66.7893 177.484 67.0365 176.976C67.2865 176.467 67.6331 176.072 68.0763 175.791C68.5223 175.51 69.0407 175.369 69.6317 175.369C70.2226 175.369 70.7396 175.51 71.1828 175.791C71.6288 176.072 71.9754 176.467 72.2226 176.976C72.4726 177.484 72.5976 178.08 72.5976 178.761C72.5976 179.437 72.4726 180.028 72.2226 180.534C71.9754 181.04 71.6288 181.433 71.1828 181.714C70.7396 181.996 70.2226 182.136 69.6317 182.136ZM69.6317 181.233C70.0805 181.233 70.4498 181.118 70.7396 180.888C71.0294 180.658 71.2439 180.355 71.3831 179.98C71.5223 179.605 71.5919 179.199 71.5919 178.761C71.5919 178.324 71.5223 177.916 71.3831 177.538C71.2439 177.161 71.0294 176.855 70.7396 176.622C70.4498 176.389 70.0805 176.273 69.6317 176.273C69.1828 176.273 68.8135 176.389 68.5237 176.622C68.2339 176.855 68.0194 177.161 67.8802 177.538C67.741 177.916 67.6714 178.324 67.6714 178.761C67.6714 179.199 67.741 179.605 67.8802 179.98C68.0194 180.355 68.2339 180.658 68.5237 180.888C68.8135 181.118 69.1828 181.233 69.6317 181.233ZM73.8927 182V175.455H74.8643V176.443H74.9325C75.0518 176.119 75.2677 175.857 75.5802 175.655C75.8927 175.453 76.245 175.352 76.637 175.352C76.7109 175.352 76.8032 175.354 76.914 175.357C77.0248 175.359 77.1086 175.364 77.1654 175.369V176.392C77.1314 176.384 77.0532 176.371 76.9311 176.354C76.8118 176.334 76.6853 176.324 76.5518 176.324C76.2336 176.324 75.9495 176.391 75.6995 176.524C75.4524 176.655 75.2564 176.837 75.1115 177.07C74.9694 177.3 74.8984 177.562 74.8984 177.858V182H73.8927ZM81.3743 175.455V176.307H77.9823V175.455H81.3743ZM78.9709 173.886H79.9766V180.125C79.9766 180.409 80.0178 180.622 80.1002 180.764C80.1854 180.903 80.2933 180.997 80.424 181.045C80.5575 181.091 80.6982 181.114 80.8459 181.114C80.9567 181.114 81.0476 181.108 81.1186 181.097C81.1897 181.082 81.2465 181.071 81.2891 181.062L81.4936 181.966C81.4254 181.991 81.3303 182.017 81.2081 182.043C81.086 182.071 80.9311 182.085 80.7436 182.085C80.4595 182.085 80.1811 182.024 79.9084 181.902C79.6385 181.78 79.4141 181.594 79.2351 181.344C79.059 181.094 78.9709 180.778 78.9709 180.398V173.886ZM85.9185 182V173.273H88.8673C89.552 173.273 90.1116 173.396 90.5463 173.643C90.9838 173.888 91.3077 174.219 91.5179 174.636C91.7281 175.054 91.8332 175.52 91.8332 176.034C91.8332 176.548 91.7281 177.016 91.5179 177.436C91.3105 177.857 90.9895 178.192 90.5548 178.442C90.1202 178.689 89.5633 178.812 88.8844 178.812H86.7707V177.875H88.8503C89.319 177.875 89.6954 177.794 89.9795 177.632C90.2636 177.47 90.4696 177.251 90.5974 176.976C90.7281 176.697 90.7935 176.384 90.7935 176.034C90.7935 175.685 90.7281 175.372 90.5974 175.097C90.4696 174.821 90.2622 174.605 89.9753 174.449C89.6883 174.29 89.3077 174.21 88.8332 174.21H86.9753V182H85.9185ZM100.216 173.273V182H99.1934L94.4377 175.148H94.3525V182H93.2956V173.273H94.3184L99.0911 180.142H99.1763V173.273H100.216ZM108.057 176C107.963 175.713 107.839 175.456 107.686 175.229C107.535 174.999 107.355 174.803 107.145 174.641C106.937 174.479 106.702 174.355 106.437 174.27C106.173 174.185 105.883 174.142 105.568 174.142C105.051 174.142 104.581 174.276 104.158 174.543C103.734 174.81 103.398 175.203 103.148 175.723C102.898 176.243 102.773 176.881 102.773 177.636C102.773 178.392 102.899 179.03 103.152 179.55C103.405 180.07 103.747 180.463 104.179 180.73C104.611 180.997 105.096 181.131 105.636 181.131C106.136 181.131 106.577 181.024 106.957 180.811C107.341 180.595 107.639 180.291 107.852 179.899C108.068 179.504 108.176 179.04 108.176 178.506L108.5 178.574H105.875V177.636H109.199V178.574C109.199 179.293 109.045 179.918 108.739 180.449C108.435 180.98 108.014 181.392 107.477 181.685C106.943 181.974 106.329 182.119 105.636 182.119C104.864 182.119 104.185 181.938 103.599 181.574C103.017 181.21 102.562 180.693 102.236 180.023C101.912 179.352 101.75 178.557 101.75 177.636C101.75 176.946 101.842 176.325 102.027 175.774C102.214 175.22 102.479 174.749 102.819 174.359C103.16 173.97 103.564 173.672 104.03 173.464C104.496 173.257 105.008 173.153 105.568 173.153C106.028 173.153 106.457 173.223 106.855 173.362C107.256 173.499 107.612 173.693 107.925 173.946C108.24 174.196 108.503 174.496 108.713 174.845C108.923 175.192 109.068 175.577 109.148 176H108.057ZM112.132 180.807L112.064 181.267C112.016 181.591 111.942 181.938 111.843 182.307C111.746 182.676 111.645 183.024 111.54 183.351C111.435 183.678 111.348 183.938 111.28 184.131H110.513C110.55 183.949 110.598 183.709 110.658 183.411C110.718 183.112 110.777 182.778 110.837 182.409C110.899 182.043 110.951 181.668 110.99 181.284L111.041 180.807H112.132ZM120.368 173.273H121.425V179.511C121.425 180.068 121.323 180.541 121.118 180.93C120.913 181.32 120.625 181.615 120.253 181.817C119.881 182.018 119.442 182.119 118.936 182.119C118.459 182.119 118.034 182.033 117.662 181.859C117.29 181.683 116.997 181.433 116.784 181.109C116.571 180.786 116.465 180.401 116.465 179.955H117.504C117.504 180.202 117.565 180.418 117.688 180.602C117.813 180.784 117.983 180.926 118.199 181.028C118.415 181.131 118.661 181.182 118.936 181.182C119.24 181.182 119.499 181.118 119.712 180.99C119.925 180.862 120.087 180.675 120.198 180.428C120.311 180.178 120.368 179.872 120.368 179.511V173.273ZM123.303 182V173.273H126.252C126.936 173.273 127.496 173.396 127.931 173.643C128.368 173.888 128.692 174.219 128.902 174.636C129.112 175.054 129.217 175.52 129.217 176.034C129.217 176.548 129.112 177.016 128.902 177.436C128.695 177.857 128.374 178.192 127.939 178.442C127.504 178.689 126.948 178.812 126.269 178.812H124.155V177.875H126.234C126.703 177.875 127.08 177.794 127.364 177.632C127.648 177.47 127.854 177.251 127.982 176.976C128.112 176.697 128.178 176.384 128.178 176.034C128.178 175.685 128.112 175.372 127.982 175.097C127.854 174.821 127.646 174.605 127.359 174.449C127.073 174.29 126.692 174.21 126.217 174.21H124.359V182H123.303ZM136.646 176C136.552 175.713 136.428 175.456 136.275 175.229C136.124 174.999 135.944 174.803 135.734 174.641C135.526 174.479 135.291 174.355 135.026 174.27C134.762 174.185 134.472 174.142 134.157 174.142C133.64 174.142 133.17 174.276 132.747 174.543C132.323 174.81 131.987 175.203 131.737 175.723C131.487 176.243 131.362 176.881 131.362 177.636C131.362 178.392 131.488 179.03 131.741 179.55C131.994 180.07 132.336 180.463 132.768 180.73C133.2 180.997 133.686 181.131 134.225 181.131C134.725 181.131 135.166 181.024 135.546 180.811C135.93 180.595 136.228 180.291 136.441 179.899C136.657 179.504 136.765 179.04 136.765 178.506L137.089 178.574H134.464V177.636H137.788V178.574C137.788 179.293 137.634 179.918 137.328 180.449C137.024 180.98 136.603 181.392 136.066 181.685C135.532 181.974 134.919 182.119 134.225 182.119C133.453 182.119 132.774 181.938 132.188 181.574C131.606 181.21 131.151 180.693 130.825 180.023C130.501 179.352 130.339 178.557 130.339 177.636C130.339 176.946 130.431 176.325 130.616 175.774C130.803 175.22 131.068 174.749 131.409 174.359C131.749 173.97 132.153 173.672 132.619 173.464C133.085 173.257 133.597 173.153 134.157 173.153C134.617 173.153 135.046 173.223 135.444 173.362C135.845 173.499 136.201 173.693 136.514 173.946C136.829 174.196 137.092 174.496 137.302 174.845C137.512 175.192 137.657 175.577 137.737 176H136.646ZM145.016 182.136C144.425 182.136 143.906 181.996 143.46 181.714C143.017 181.433 142.67 181.04 142.42 180.534C142.173 180.028 142.05 179.437 142.05 178.761C142.05 178.08 142.173 177.484 142.42 176.976C142.67 176.467 143.017 176.072 143.46 175.791C143.906 175.51 144.425 175.369 145.016 175.369C145.606 175.369 146.124 175.51 146.567 175.791C147.013 176.072 147.359 176.467 147.606 176.976C147.856 177.484 147.981 178.08 147.981 178.761C147.981 179.437 147.856 180.028 147.606 180.534C147.359 181.04 147.013 181.433 146.567 181.714C146.124 181.996 145.606 182.136 145.016 182.136ZM145.016 181.233C145.464 181.233 145.834 181.118 146.124 180.888C146.413 180.658 146.628 180.355 146.767 179.98C146.906 179.605 146.976 179.199 146.976 178.761C146.976 178.324 146.906 177.916 146.767 177.538C146.628 177.161 146.413 176.855 146.124 176.622C145.834 176.389 145.464 176.273 145.016 176.273C144.567 176.273 144.197 176.389 143.908 176.622C143.618 176.855 143.403 177.161 143.264 177.538C143.125 177.916 143.055 178.324 143.055 178.761C143.055 179.199 143.125 179.605 143.264 179.98C143.403 180.355 143.618 180.658 143.908 180.888C144.197 181.118 144.567 181.233 145.016 181.233ZM149.277 182V175.455H150.248V176.443H150.316C150.436 176.119 150.652 175.857 150.964 175.655C151.277 175.453 151.629 175.352 152.021 175.352C152.095 175.352 152.187 175.354 152.298 175.357C152.409 175.359 152.493 175.364 152.549 175.369V176.392C152.515 176.384 152.437 176.371 152.315 176.354C152.196 176.334 152.069 176.324 151.936 176.324C151.618 176.324 151.333 176.391 151.083 176.524C150.836 176.655 150.64 176.837 150.495 177.07C150.353 177.3 150.282 177.562 150.282 177.858V182H149.277ZM160.114 173.273H161.171V179.511C161.171 180.068 161.068 180.541 160.864 180.93C160.659 181.32 160.371 181.615 159.999 181.817C159.627 182.018 159.188 182.119 158.682 182.119C158.205 182.119 157.78 182.033 157.408 181.859C157.036 181.683 156.743 181.433 156.53 181.109C156.317 180.786 156.21 180.401 156.21 179.955H157.25C157.25 180.202 157.311 180.418 157.433 180.602C157.558 180.784 157.729 180.926 157.945 181.028C158.161 181.131 158.406 181.182 158.682 181.182C158.986 181.182 159.244 181.118 159.457 180.99C159.671 180.862 159.832 180.675 159.943 180.428C160.057 180.178 160.114 179.872 160.114 179.511V173.273ZM163.048 182V173.273H165.997C166.682 173.273 167.242 173.396 167.676 173.643C168.114 173.888 168.438 174.219 168.648 174.636C168.858 175.054 168.963 175.52 168.963 176.034C168.963 176.548 168.858 177.016 168.648 177.436C168.441 177.857 168.119 178.192 167.685 178.442C167.25 178.689 166.693 178.812 166.014 178.812H163.901V177.875H165.98C166.449 177.875 166.825 177.794 167.11 177.632C167.394 177.47 167.6 177.251 167.727 176.976C167.858 176.697 167.923 176.384 167.923 176.034C167.923 175.685 167.858 175.372 167.727 175.097C167.6 174.821 167.392 174.605 167.105 174.449C166.818 174.29 166.438 174.21 165.963 174.21H164.105V182H163.048ZM170.426 182V173.273H175.693V174.21H171.482V177.159H175.42V178.097H171.482V181.062H175.761V182H170.426ZM183.323 176C183.23 175.713 183.106 175.456 182.953 175.229C182.802 174.999 182.622 174.803 182.411 174.641C182.204 174.479 181.968 174.355 181.704 174.27C181.44 174.185 181.15 174.142 180.835 174.142C180.318 174.142 179.848 174.276 179.424 174.543C179.001 174.81 178.664 175.203 178.414 175.723C178.164 176.243 178.039 176.881 178.039 177.636C178.039 178.392 178.166 179.03 178.419 179.55C178.671 180.07 179.014 180.463 179.446 180.73C179.877 180.997 180.363 181.131 180.903 181.131C181.403 181.131 181.843 181.024 182.224 180.811C182.608 180.595 182.906 180.291 183.119 179.899C183.335 179.504 183.443 179.04 183.443 178.506L183.767 178.574H181.142V177.636H184.465V178.574C184.465 179.293 184.312 179.918 184.005 180.449C183.701 180.98 183.281 181.392 182.744 181.685C182.21 181.974 181.596 182.119 180.903 182.119C180.13 182.119 179.451 181.938 178.866 181.574C178.284 181.21 177.829 180.693 177.502 180.023C177.179 179.352 177.017 178.557 177.017 177.636C177.017 176.946 177.109 176.325 177.294 175.774C177.481 175.22 177.745 174.749 178.086 174.359C178.427 173.97 178.831 173.672 179.296 173.464C179.762 173.257 180.275 173.153 180.835 173.153C181.295 173.153 181.724 173.223 182.122 173.362C182.522 173.499 182.879 173.693 183.191 173.946C183.507 174.196 183.769 174.496 183.98 174.845C184.19 175.192 184.335 175.577 184.414 176H183.323ZM189.392 178.318C189.392 177.244 189.531 176.257 189.81 175.357C190.091 174.453 190.492 173.622 191.011 172.864H191.898C191.693 173.145 191.501 173.491 191.322 173.903C191.146 174.312 190.992 174.763 190.858 175.254C190.724 175.743 190.619 176.249 190.543 176.771C190.469 177.294 190.432 177.81 190.432 178.318C190.432 178.994 190.497 179.68 190.628 180.376C190.759 181.072 190.935 181.719 191.156 182.315C191.378 182.912 191.625 183.398 191.898 183.773H191.011C190.492 183.014 190.091 182.185 189.81 181.284C189.531 180.381 189.392 179.392 189.392 178.318ZM193.142 182V175.455H194.113V176.477H194.199C194.335 176.128 194.555 175.857 194.859 175.663C195.163 175.467 195.528 175.369 195.954 175.369C196.386 175.369 196.745 175.467 197.032 175.663C197.322 175.857 197.548 176.128 197.71 176.477H197.778C197.946 176.139 198.197 175.871 198.532 175.672C198.868 175.47 199.27 175.369 199.738 175.369C200.324 175.369 200.802 175.553 201.174 175.919C201.547 176.283 201.733 176.849 201.733 177.619V182H200.727V177.619C200.727 177.136 200.595 176.791 200.331 176.584C200.066 176.376 199.755 176.273 199.397 176.273C198.937 176.273 198.581 176.412 198.328 176.69C198.075 176.966 197.949 177.315 197.949 177.739V182H196.926V177.517C196.926 177.145 196.805 176.845 196.564 176.618C196.322 176.388 196.011 176.273 195.63 176.273C195.369 176.273 195.125 176.342 194.897 176.482C194.673 176.621 194.491 176.814 194.352 177.061C194.216 177.305 194.147 177.588 194.147 177.909V182H193.142ZM205.258 182.153C204.843 182.153 204.466 182.075 204.128 181.919C203.79 181.76 203.522 181.531 203.323 181.233C203.124 180.932 203.025 180.568 203.025 180.142C203.025 179.767 203.099 179.463 203.246 179.23C203.394 178.994 203.591 178.81 203.839 178.676C204.086 178.543 204.358 178.443 204.657 178.378C204.958 178.31 205.26 178.256 205.564 178.216C205.962 178.165 206.285 178.126 206.532 178.101C206.782 178.072 206.964 178.026 207.077 177.96C207.194 177.895 207.252 177.781 207.252 177.619V177.585C207.252 177.165 207.137 176.838 206.907 176.605C206.679 176.372 206.334 176.256 205.871 176.256C205.391 176.256 205.015 176.361 204.742 176.571C204.469 176.781 204.277 177.006 204.167 177.244L203.212 176.903C203.383 176.506 203.61 176.196 203.894 175.974C204.181 175.75 204.493 175.594 204.831 175.506C205.172 175.415 205.508 175.369 205.837 175.369C206.047 175.369 206.289 175.395 206.562 175.446C206.837 175.494 207.103 175.595 207.358 175.749C207.617 175.902 207.831 176.134 208.002 176.443C208.172 176.753 208.258 177.168 208.258 177.688V182H207.252V181.114H207.201C207.133 181.256 207.019 181.408 206.86 181.57C206.701 181.732 206.489 181.869 206.225 181.983C205.961 182.097 205.638 182.153 205.258 182.153ZM205.411 181.25C205.809 181.25 206.144 181.172 206.417 181.016C206.692 180.859 206.9 180.658 207.039 180.411C207.181 180.163 207.252 179.903 207.252 179.631V178.71C207.209 178.761 207.116 178.808 206.971 178.851C206.829 178.891 206.664 178.926 206.476 178.957C206.292 178.986 206.111 179.011 205.935 179.034C205.762 179.054 205.621 179.071 205.513 179.085C205.252 179.119 205.008 179.175 204.78 179.251C204.556 179.325 204.374 179.437 204.235 179.588C204.099 179.736 204.03 179.937 204.03 180.193C204.03 180.543 204.16 180.807 204.418 180.986C204.679 181.162 205.01 181.25 205.411 181.25ZM210.603 175.455L212.171 178.131L213.74 175.455H214.899L212.785 178.727L214.899 182H213.74L212.171 179.46L210.603 182H209.444L211.524 178.727L209.444 175.455H210.603ZM216.827 182.068C216.616 182.068 216.436 181.993 216.285 181.842C216.135 181.692 216.06 181.511 216.06 181.301C216.06 181.091 216.135 180.911 216.285 180.76C216.436 180.609 216.616 180.534 216.827 180.534C217.037 180.534 217.217 180.609 217.368 180.76C217.518 180.911 217.594 181.091 217.594 181.301C217.594 181.44 217.558 181.568 217.487 181.685C217.419 181.801 217.327 181.895 217.21 181.966C217.096 182.034 216.969 182.068 216.827 182.068ZM114.463 198V197.233L117.343 194.08C117.681 193.71 117.96 193.389 118.179 193.116C118.397 192.841 118.559 192.582 118.664 192.341C118.772 192.097 118.826 191.841 118.826 191.574C118.826 191.267 118.752 191.001 118.605 190.777C118.46 190.553 118.261 190.379 118.008 190.257C117.755 190.135 117.471 190.074 117.156 190.074C116.821 190.074 116.528 190.143 116.278 190.283C116.031 190.419 115.839 190.611 115.703 190.858C115.569 191.105 115.502 191.395 115.502 191.727H114.497C114.497 191.216 114.615 190.767 114.85 190.381C115.086 189.994 115.407 189.693 115.813 189.477C116.223 189.261 116.681 189.153 117.19 189.153C117.701 189.153 118.154 189.261 118.549 189.477C118.944 189.693 119.254 189.984 119.478 190.351C119.703 190.717 119.815 191.125 119.815 191.574C119.815 191.895 119.757 192.209 119.64 192.516C119.527 192.82 119.328 193.159 119.044 193.534C118.762 193.906 118.372 194.361 117.872 194.898L115.911 196.994V197.062H119.968V198H114.463ZM121.642 189.273H122.903L125.869 196.517H125.971L128.937 189.273H130.198V198H129.21V191.369H129.125L126.397 198H125.443L122.716 191.369H122.63V198H121.642V189.273ZM132.077 198V189.273H133.083V192.494H133.168C133.242 192.381 133.344 192.236 133.475 192.06C133.609 191.881 133.799 191.722 134.046 191.582C134.296 191.44 134.634 191.369 135.06 191.369C135.612 191.369 136.097 191.507 136.518 191.783C136.938 192.058 137.266 192.449 137.502 192.955C137.738 193.46 137.856 194.057 137.856 194.744C137.856 195.438 137.738 196.038 137.502 196.547C137.266 197.053 136.94 197.445 136.522 197.723C136.104 197.999 135.623 198.136 135.077 198.136C134.657 198.136 134.32 198.067 134.068 197.928C133.815 197.786 133.62 197.625 133.484 197.446C133.347 197.264 133.242 197.114 133.168 196.994H133.049V198H132.077ZM133.066 194.727C133.066 195.222 133.139 195.658 133.283 196.036C133.428 196.411 133.64 196.705 133.918 196.918C134.197 197.128 134.538 197.233 134.941 197.233C135.362 197.233 135.712 197.122 135.994 196.901C136.278 196.676 136.491 196.375 136.633 195.997C136.778 195.616 136.85 195.193 136.85 194.727C136.85 194.267 136.779 193.852 136.637 193.483C136.498 193.111 136.286 192.817 136.002 192.601C135.721 192.382 135.367 192.273 134.941 192.273C134.532 192.273 134.188 192.376 133.91 192.584C133.631 192.788 133.421 193.075 133.279 193.445C133.137 193.811 133.066 194.239 133.066 194.727ZM141.161 194.318C141.161 195.392 141.021 196.381 140.739 197.284C140.461 198.185 140.062 199.014 139.542 199.773H138.656C138.86 199.491 139.051 199.145 139.227 198.733C139.406 198.324 139.562 197.875 139.695 197.386C139.829 196.895 139.933 196.388 140.006 195.865C140.083 195.339 140.122 194.824 140.122 194.318C140.122 193.642 140.056 192.956 139.926 192.26C139.795 191.564 139.619 190.918 139.397 190.321C139.176 189.724 138.928 189.239 138.656 188.864H139.542C140.062 189.622 140.461 190.453 140.739 191.357C141.021 192.257 141.161 193.244 141.161 194.318Z" fill="#BAB8B8"/>
</svg>
