<svg width="128" height="128" viewBox="0 0 128 128" fill="none" xmlns="http://www.w3.org/2000/svg">
<g clip-path="url(#clip0_1_3)">
<path d="M128 0H0V128H128V0Z" fill="#EDEFF2"/>
<path d="M64 64C69.2599 64 73.5237 59.7362 73.5237 54.4763C73.5237 49.2165 69.2599 44.9524 64 44.9524C58.7401 44.9524 54.4763 49.2165 54.4763 54.4763C54.4763 59.7362 58.7401 64 64 64Z" fill="#556477"/>
<path d="M64 68.7621C54.4571 68.7621 46.6857 75.1621 46.6857 83.0478C46.6857 83.5808 47.1049 84 47.6379 84H80.3621C80.8951 84 81.3143 83.5808 81.3143 83.0478C81.3143 75.1621 73.5429 68.7621 64 68.7621Z" fill="#556477"/>
</g>
<defs>
<clipPath id="clip0_1_3">
<rect width="128" height="128" fill="white"/>
</clipPath>
</defs>
</svg>
